<?xml version="1.0" encoding="utf-8"?>
<!-- Generator: Adobe Illustrator 17.0.0, SVG Export Plug-In . SVG Version: 6.00 Build 0)  -->
<!DOCTYPE svg PUBLIC "-//W3C//DTD SVG 1.1//EN" "http://www.w3.org/Graphics/SVG/1.1/DTD/svg11.dtd">
<svg version="1.1" id="Layer_1" xmlns="http://www.w3.org/2000/svg" xmlns:xlink="http://www.w3.org/1999/xlink" x="0px" y="0px"
	 width="200px" height="200px" viewBox="0 0 200 200" enable-background="new 0 0 200 200" xml:space="preserve">
<rect fill="#F1F2F2" width="200" height="200"/>
<g>
	<polygon fill="#D1D3D4" points="150.298,67.329 135.726,67.329 135.726,52.757 131.742,52.757 131.742,67.329 117.17,67.329 
		117.17,71.314 131.742,71.314 131.742,85.886 135.726,85.886 135.726,71.314 150.298,71.314 	"/>
	<g>
		<path fill="none" d="M66.211,145.243h67.579V91.14h-9.672V78.914h-12.226v-9.672H66.211V145.243z M84.962,95.213
			c4.981,0,9.023,4.041,9.023,9.023s-4.041,9.023-9.023,9.023s-9.023-4.041-9.023-9.023S79.981,95.213,84.962,95.213z
			 M75.94,128.295l9.023-9.023l6.015,6.015l18.045-18.045l15.038,15.038v15.038H75.94V128.295z"/>
		<circle fill="#D1D3D4" cx="84.962" cy="104.235" r="9.023"/>
		<polygon fill="#D1D3D4" points="124.06,122.28 109.023,107.243 90.977,125.288 84.962,119.273 75.94,128.295 75.94,137.318 
			124.06,137.318 		"/>
		<polygon fill="#D1D3D4" points="133.789,145.243 66.211,145.243 66.211,69.243 111.892,69.243 111.892,67.243 64.211,67.243 
			64.211,147.243 135.789,147.243 135.789,91.14 133.789,91.14 		"/>
	</g>
</g>
</svg>
